<svg version="1.1" xmlns="http://www.w3.org/2000/svg" viewBox="0 0 1389.4526290893555 628.33349609375" width="1389.4526290893555" height="628.33349609375" filter="invert(93%) hue-rotate(180deg)">
  <!-- svg-source:excalidraw -->
  
  <defs>
    <style class="style-fonts">
      @font-face {
        font-family: "Virgil";
        src: url("https://excalidraw.com/Virgil.woff2");
      }
      @font-face {
        font-family: "Cascadia";
        src: url("https://excalidraw.com/Cascadia.woff2");
      }
    </style>
  </defs>
  <g transform="translate(89.32115936279297 148) rotate(0 645.0657348632812 22.5)"><text x="645.0657348632812" y="0" font-family="Virgil, Segoe UI Emoji" font-size="36px" fill="#1e1e1e" text-anchor="middle" style="white-space: pre;" direction="ltr" dominant-baseline="text-before-edge">Nekdis:V1:Cat:1685633187654:39ac8814-c9a5-4778-9580-9d67334b070e</text></g><g stroke-linecap="round"><g transform="translate(82.65453338623047 192) rotate(0 55.47772162482147 2.572251614613947)"><path d="M-1.65 0.3 C7.94 1.24, 37.86 4.33, 56.9 4.59 C75.95 4.85, 103.39 2.73, 112.61 1.85 M2.65 -2 C11.95 -0.56, 36.77 7.93, 54.79 7.82 C72.81 7.71, 101.14 -1.62, 110.77 -2.68" stroke="#2f9e44" stroke-width="2" fill="none"></path></g></g><mask></mask><g stroke-linecap="round"><g transform="translate(141.32122039794922 198.66665649414062) rotate(0 -8.735066097671677 180.38916609957815)"><path d="M2.11 -2.04 C0.25 32.36, -9.03 144.65, -12.65 205.46 C-16.27 266.27, -19.08 336.93, -19.58 362.82 M-0.18 3.02 C-2.34 37.88, -12.99 149.29, -15.24 208.44 C-17.49 267.59, -13.89 332.17, -13.67 357.91" stroke="#2f9e44" stroke-width="2" fill="none"></path></g><g transform="translate(141.32122039794922 198.66665649414062) rotate(0 -8.735066097671677 180.38916609957815)"><path d="M-27.59 329.08 C-23.86 334.34, -17.77 346.79, -14.94 354.95 M-25.99 329.29 C-20.84 337.92, -17.77 349.4, -14.14 356.32" stroke="#2f9e44" stroke-width="2" fill="none"></path></g><g transform="translate(141.32122039794922 198.66665649414062) rotate(0 -8.735066097671677 180.38916609957815)"><path d="M-7.07 328.53 C-8.42 334.24, -7.41 346.83, -14.94 354.95 M-5.47 328.74 C-7.2 337.37, -11 349.04, -14.14 356.32" stroke="#2f9e44" stroke-width="2" fill="none"></path></g></g><mask></mask><g transform="translate(10 561.3333740234375) rotate(0 116.08194732666016 22.5)"><text x="116.08194732666016" y="0" font-family="Virgil, Segoe UI Emoji" font-size="36px" fill="#2f9e44" text-anchor="middle" style="white-space: pre;" direction="ltr" dominant-baseline="text-before-edge">Global Prefix</text></g><g stroke-linecap="round"><g transform="translate(199.98790740966797 190.66665649414062) rotate(0 19.051931972056593 0.6469158824498891)"><path d="M-1.67 1.07 C5.32 1.84, 32.49 2.98, 39.77 2.99 M2.62 -0.82 C9.48 -0.78, 31.26 -2.25, 37.77 -1.48" stroke="#1971c2" stroke-width="2" fill="none"></path></g></g><mask></mask><g stroke-linecap="round"><g transform="translate(219.98784637451172 194) rotate(0 -4.659519163001789 132.92128637090326)"><path d="M-2.76 0.67 C-4.01 22.39, -7.35 86.23, -8.01 130.33 C-8.66 174.44, -6.9 242.71, -6.66 265.29 M0.94 -1.44 C-0.64 19.41, -9.88 81.08, -10.25 125.87 C-10.62 170.65, -1.76 243.67, -1.28 267.28" stroke="#1971c2" stroke-width="2" fill="none"></path></g><g transform="translate(219.98784637451172 194) rotate(0 -4.659519163001789 132.92128637090326)"><path d="M-12.48 239.85 C-8.57 244.03, -9.49 251.94, -3.5 270.34 M-12.32 240.72 C-8.8 249.19, -3.75 259.69, -0.75 269.02" stroke="#1971c2" stroke-width="2" fill="none"></path></g><g transform="translate(219.98784637451172 194) rotate(0 -4.659519163001789 132.92128637090326)"><path d="M7.99 238.45 C6.12 242.62, -0.58 250.93, -3.5 270.34 M8.16 239.32 C3.77 248.71, 0.92 259.75, -0.75 269.02" stroke="#1971c2" stroke-width="2" fill="none"></path></g></g><mask></mask><g transform="translate(166.36456298828125 474.6666259765625) rotate(0 52.28997039794922 22.5)"><text x="52.28997039794922" y="0" font-family="Virgil, Segoe UI Emoji" font-size="36px" fill="#1971c2" text-anchor="middle" style="white-space: pre;" direction="ltr" dominant-baseline="text-before-edge">Prefix</text></g><g stroke-linecap="round"><g transform="translate(244.65453338623047 190.66668701171875) rotate(0 31.89179021820422 1.3634349216195574)"><path d="M0.63 0.86 C5.23 1.38, 19.99 0.9, 29.94 1.33 C39.9 1.76, 55.09 3.52, 60.33 3.44 M-2.48 -1.14 C2.73 -0.15, 23.41 3.77, 34.87 3.87 C46.33 3.96, 61.79 -0.54, 66.26 -0.58" stroke="#ff0000" stroke-width="2" fill="none"></path></g></g><mask></mask><g stroke-linecap="round"><g transform="translate(277.3212203979492 195.33334350585938) rotate(0 -0.687425199388656 101.6675079591572)"><path d="M2.46 -0.68 C1.23 11.34, -6.69 39.23, -7.05 73.27 C-7.41 107.32, -0.9 181.55, 0.31 203.6 M0.36 -3.52 C0.01 7.56, -2.47 33.89, -1.58 68.95 C-0.69 104.01, 5.55 184.89, 5.69 206.85" stroke="#ff0000" stroke-width="2" fill="none"></path></g><g transform="translate(277.3212203979492 195.33334350585938) rotate(0 -0.687425199388656 101.6675079591572)"><path d="M-6.79 176.69 C-0.18 183.76, 1.97 192.23, 8.87 207.28 M-7.4 180.52 C-0.06 189.16, 3.16 195.56, 7.2 207.5" stroke="#ff0000" stroke-width="2" fill="none"></path></g><g transform="translate(277.3212203979492 195.33334350585938) rotate(0 -0.687425199388656 101.6675079591572)"><path d="M13.72 175.78 C13.93 183.49, 9.69 192.25, 8.87 207.28 M13.1 179.61 C13.77 188.9, 10.29 195.6, 7.2 207.5" stroke="#ff0000" stroke-width="2" fill="none"></path></g></g><mask></mask><g transform="translate(238.90126037597656 408.0001220703125) rotate(0 102.41996002197266 22.5)"><text x="102.41996002197266" y="0" font-family="Virgil, Segoe UI Emoji" font-size="36px" fill="#ff0000" text-anchor="middle" style="white-space: pre;" direction="ltr" dominant-baseline="text-before-edge">Model Name</text></g><g stroke-linecap="round"><g transform="translate(319.3212203979492 189.33334350585938) rotate(0 138.46096063330765 0.5842969457671074)"><path d="M-2.76 -2.15 C21.09 -1.86, 94.51 1.81, 141.58 1.66 C188.65 1.52, 256.5 -2.66, 279.68 -3.02 M0.94 2.85 C24.46 3.42, 92.69 4.63, 138.75 4.02 C184.82 3.41, 253.59 -0.59, 277.34 -0.83" stroke="#e8590c" stroke-width="2" fill="none"></path></g></g><mask></mask><g stroke-linecap="round"><g transform="translate(437.9878463745117 192) rotate(0 2.859577888983438 65.70309696748856)"><path d="M2.79 -0.92 C2.69 10.27, -0.86 42.21, -0.02 64.38 C0.82 86.55, 7.35 120.75, 7.84 132.12 M0.85 -3.89 C0.39 7.88, -2.98 43.94, -1.91 67.13 C-0.84 90.33, 6.62 123.9, 7.28 135.29" stroke="#e8590c" stroke-width="2" fill="none"></path></g><g transform="translate(437.9878463745117 192) rotate(0 2.859577888983438 65.70309696748856)"><path d="M-7.97 109.65 C-5.03 120.24, 1.92 121.69, 8.09 137.48 M-6.86 109.69 C0.31 119.45, 2.55 128.68, 5.47 136.57" stroke="#e8590c" stroke-width="2" fill="none"></path></g><g transform="translate(437.9878463745117 192) rotate(0 2.859577888983438 65.70309696748856)"><path d="M12.36 106.9 C8.74 118.77, 9.18 121.11, 8.09 137.48 M13.47 106.95 C13.46 117.96, 8.51 128.16, 5.47 136.57" stroke="#e8590c" stroke-width="2" fill="none"></path></g></g><mask></mask><g transform="translate(391.93255615234375 334) rotate(0 52.72197723388672 22.5)"><text x="52.72197723388672" y="0" font-family="Virgil, Segoe UI Emoji" font-size="36px" fill="#e8590c" text-anchor="middle" style="white-space: pre;" direction="ltr" dominant-baseline="text-before-edge">Suffix</text></g><g stroke-linecap="round"><g transform="translate(613.3212203979492 190.66668701171875) rotate(0 379.35846791595225 3.609813243568624)"><path d="M2.16 0.63 C68.52 2.19, 273.82 7.74, 399.93 8.57 C526.04 9.4, 698.77 6.48, 758.82 5.59 M-0.1 -1.5 C67.02 -0.71, 279.42 3.88, 405.56 4.23 C531.7 4.57, 697.45 0.43, 756.74 0.57" stroke="#ff00ef" stroke-width="2" fill="none"></path></g></g><mask></mask><g stroke-linecap="round"><g transform="translate(997.6926121956885 199.33334350585938) rotate(0 0.10318484166691633 30.87191152006389)"><path d="M-1.26 1.34 C-1.35 11.49, -1.25 52.14, -1.42 62.14 M3.25 -0.4 C2.97 8.87, -1.84 48.8, -3.05 58.29" stroke="#ff00ef" stroke-width="2" fill="none"></path></g><g transform="translate(997.6926121956885 199.33334350585938) rotate(0 0.10318484166691633 30.87191152006389)"><path d="M-7.91 30.69 C-4.69 37.34, -3.98 48.48, -4.72 61.14 M-8.61 29.91 C-8.22 38.36, -6.04 50.95, -3.93 59" stroke="#ff00ef" stroke-width="2" fill="none"></path></g><g transform="translate(997.6926121956885 199.33334350585938) rotate(0 0.10318484166691633 30.87191152006389)"><path d="M12.46 33.17 C10.19 38.97, 5.43 49.45, -4.72 61.14 M11.76 32.39 C4.68 39.52, -0.63 51.21, -3.93 59" stroke="#ff00ef" stroke-width="2" fill="none"></path></g></g><mask></mask><g transform="translate(674.2112655639648 274.66668701171875) rotate(0 331.1099548339844 67.5)"><text x="331.1099548339844" y="0" font-family="Virgil, Segoe UI Emoji" font-size="36px" fill="#ff00ef" text-anchor="middle" style="white-space: pre;" direction="ltr" dominant-baseline="text-before-edge">ID</text><text x="331.1099548339844" y="45" font-family="Virgil, Segoe UI Emoji" font-size="36px" fill="#ff00ef" text-anchor="middle" style="white-space: pre;" direction="ltr" dominant-baseline="text-before-edge">Can be as long as you want it to be</text><text x="331.1099548339844" y="90" font-family="Virgil, Segoe UI Emoji" font-size="36px" fill="#ff00ef" text-anchor="middle" style="white-space: pre;" direction="ltr" dominant-baseline="text-before-edge"> and include separators</text></g><g transform="translate(578.7645034790039 17.3333740234375) rotate(0 91.88996887207031 22.5)"><text x="91.88996887207031" y="0" font-family="Virgil, Segoe UI Emoji" font-size="36px" fill="#1e1e1e" text-anchor="middle" style="white-space: pre;" direction="ltr" dominant-baseline="text-before-edge">Record ID</text></g><g stroke-linecap="round" transform="translate(551.3212203979492 10) rotate(0 113.33331298828125 30.333343505859375)"><path d="M15.17 0 M15.17 0 C76.06 -5.66, 138.59 0.73, 211.5 0 M15.17 0 C77.29 0.86, 136.52 2.2, 211.5 0 M211.5 0 C218.33 -3.77, 225.68 1.96, 226.67 15.17 M211.5 0 C219.01 1.76, 223.67 7.18, 226.67 15.17 M226.67 15.17 C227.79 24.99, 228.85 30.56, 226.67 45.5 M226.67 15.17 C226.37 27.72, 226.02 37.84, 226.67 45.5 M226.67 45.5 C226.68 57.4, 219.4 57.39, 211.5 60.67 M226.67 45.5 C229.15 57.56, 221.01 64.05, 211.5 60.67 M211.5 60.67 C155.83 56.82, 96.32 56.66, 15.17 60.67 M211.5 60.67 C167.67 57.84, 124.61 58.17, 15.17 60.67 M15.17 60.67 C5.76 56.84, -2.88 57.08, 0 45.5 M15.17 60.67 C8.82 58.39, -3.38 56.63, 0 45.5 M0 45.5 C-1.02 32.48, -2.54 26.3, 0 15.17 M0 45.5 C-0.31 34.77, -1.17 23.2, 0 15.17 M0 15.17 C-1.56 7.39, 4.38 -3.23, 15.17 0 M0 15.17 C1.45 9.25, 4.48 -3.41, 15.17 0" stroke="#1e1e1e" stroke-width="2" fill="none"></path></g><g transform="translate(931.6311645507812 408.6666259765625) rotate(0 82.03125 12)"><text x="82.03125" y="0" font-family="Cascadia, Segoe UI Emoji" font-size="20px" fill="#ff00ef" text-anchor="middle" style="white-space: pre;" direction="ltr" dominant-baseline="text-before-edge">Document Based</text></g><g transform="translate(84.83165740966797 594.33349609375) rotate(0 35.15625 12)"><text x="35.15625" y="0" font-family="Cascadia, Segoe UI Emoji" font-size="20px" fill="#2f9e44" text-anchor="middle" style="white-space: pre;" direction="ltr" dominant-baseline="text-before-edge">Global</text></g><g transform="translate(151.67534637451172 514.6666870117188) rotate(0 70.3125 12)"><text x="70.3125" y="0" font-family="Cascadia, Segoe UI Emoji" font-size="20px" fill="#1971c2" text-anchor="middle" style="white-space: pre;" direction="ltr" dominant-baseline="text-before-edge">Schema Based</text></g><g transform="translate(377.6753463745117 365.3333740234375) rotate(0 70.3125 12)"><text x="70.3125" y="0" font-family="Cascadia, Segoe UI Emoji" font-size="20px" fill="#e8590c" text-anchor="middle" style="white-space: pre;" direction="ltr" dominant-baseline="text-before-edge">Schema Based</text></g><g transform="translate(276.20140838623047 446) rotate(0 64.453125 12)"><text x="64.453125" y="0" font-family="Cascadia, Segoe UI Emoji" font-size="20px" fill="#ff0000" text-anchor="middle" style="white-space: pre;" direction="ltr" dominant-baseline="text-before-edge">Model Based</text></g></svg>